<svg 
 xmlns="http://www.w3.org/2000/svg"
 xmlns:xlink="http://www.w3.org/1999/xlink"
 width="0.222in" height="0.222in">
<path fill-rule="evenodd"  fill="rgb(137, 137, 137)"
 d="M8.000,15.228 C4.014,15.228 0.771,11.985 0.771,7.999 C0.771,4.013 4.014,0.770 8.000,0.770 C11.986,0.770 15.229,4.013 15.229,7.999 C15.229,11.985 11.986,15.228 8.000,15.228 ZM8.000,1.251 C4.279,1.251 1.253,4.279 1.253,7.999 C1.253,11.719 4.279,14.747 8.000,14.747 C11.720,14.747 14.747,11.719 14.747,7.999 C14.747,4.279 11.720,1.251 8.000,1.251 ZM13.301,8.211 L13.060,8.211 C12.927,8.211 12.819,8.103 12.819,7.970 C12.819,7.837 12.927,7.729 13.060,7.729 L13.301,7.729 C13.434,7.729 13.542,7.837 13.542,7.970 C13.542,8.103 13.434,8.211 13.301,8.211 ZM11.748,11.960 C11.687,11.960 11.625,11.936 11.578,11.889 L11.408,11.719 C11.314,11.624 11.314,11.472 11.408,11.378 C11.502,11.284 11.654,11.284 11.748,11.378 L11.919,11.548 C12.013,11.642 12.013,11.795 11.919,11.889 C11.872,11.936 11.810,11.960 11.748,11.960 ZM11.748,4.562 C11.701,4.608 11.640,4.633 11.578,4.633 C11.516,4.633 11.455,4.608 11.408,4.562 C11.314,4.468 11.314,4.316 11.408,4.221 L11.578,4.051 C11.672,3.956 11.825,3.956 11.919,4.051 C12.013,4.145 12.013,4.297 11.919,4.392 L11.748,4.562 ZM8.000,8.934 C7.552,8.934 7.178,8.625 7.070,8.211 L5.349,8.211 C5.216,8.211 5.108,8.103 5.108,7.970 C5.108,7.837 5.216,7.729 5.349,7.729 L7.070,7.729 C7.158,7.392 7.422,7.128 7.759,7.040 L7.759,4.596 C7.759,4.463 7.867,4.355 8.000,4.355 C8.133,4.355 8.241,4.463 8.241,4.596 L8.241,7.040 C8.655,7.148 8.964,7.522 8.964,7.970 C8.964,8.502 8.531,8.934 8.000,8.934 ZM8.000,7.488 C7.734,7.488 7.518,7.704 7.518,7.970 C7.518,8.236 7.734,8.452 8.000,8.452 C8.266,8.452 8.482,8.236 8.482,7.970 C8.482,7.704 8.266,7.488 8.000,7.488 ZM8.000,3.150 C7.867,3.150 7.759,3.042 7.759,2.910 L7.759,2.668 C7.759,2.535 7.867,2.427 8.000,2.427 C8.133,2.427 8.241,2.535 8.241,2.668 L8.241,2.910 C8.241,3.042 8.133,3.150 8.000,3.150 ZM4.422,11.889 C4.375,11.936 4.313,11.960 4.251,11.960 C4.190,11.960 4.128,11.936 4.081,11.889 C3.987,11.795 3.987,11.642 4.081,11.548 L4.251,11.378 C4.345,11.284 4.498,11.284 4.592,11.378 C4.686,11.472 4.686,11.624 4.592,11.719 L4.422,11.889 ZM4.422,4.633 C4.360,4.633 4.298,4.608 4.251,4.562 L4.081,4.392 C3.987,4.297 3.987,4.145 4.081,4.051 C4.175,3.956 4.327,3.956 4.422,4.051 L4.592,4.221 C4.686,4.316 4.686,4.468 4.592,4.562 C4.545,4.608 4.483,4.633 4.422,4.633 ZM8.000,12.789 C8.133,12.789 8.241,12.897 8.241,13.030 L8.241,13.271 C8.241,13.404 8.133,13.512 8.000,13.512 C7.867,13.512 7.759,13.404 7.759,13.271 L7.759,13.030 C7.759,12.897 7.867,12.789 8.000,12.789 ZM2.939,8.211 L2.698,8.211 C2.565,8.211 2.457,8.103 2.457,7.970 C2.457,7.837 2.565,7.729 2.698,7.729 L2.939,7.729 C3.072,7.729 3.180,7.837 3.180,7.970 C3.180,8.103 3.072,8.211 2.939,8.211 Z"/>
</svg>