<svg 
 xmlns="http://www.w3.org/2000/svg"
 xmlns:xlink="http://www.w3.org/1999/xlink"
 width="0.264in" height="0.25in">
<path fill-rule="evenodd"  fill="rgb(137, 137, 137)"
 d="M18.239,5.748 C17.983,2.927 15.989,0.881 13.493,0.881 C11.830,0.881 10.308,1.776 9.451,3.212 C8.602,1.758 7.142,0.881 5.506,0.881 C3.010,0.881 1.015,2.927 0.760,5.747 C0.740,5.873 0.657,6.528 0.909,7.597 C1.272,9.140 2.112,10.543 3.337,11.654 L9.447,17.205 L15.662,11.654 C16.886,10.543 17.726,9.140 18.090,7.597 C18.342,6.528 18.259,5.873 18.239,5.748 ZM17.433,7.443 C17.101,8.851 16.332,10.135 15.210,11.152 L9.451,16.296 L3.790,11.153 C2.667,10.134 1.898,8.851 1.566,7.442 C1.327,6.430 1.425,5.859 1.425,5.855 L1.430,5.821 C1.650,3.349 3.363,1.556 5.506,1.556 C7.087,1.556 8.478,2.528 9.139,4.093 L9.449,4.830 L9.760,4.093 C10.410,2.552 11.875,1.556 13.493,1.556 C15.635,1.556 17.349,3.350 17.573,5.853 C17.574,5.859 17.672,6.431 17.433,7.443 Z"/>
</svg>