<svg 
 xmlns="http://www.w3.org/2000/svg"
 xmlns:xlink="http://www.w3.org/1999/xlink"
 width="0.222in" height="0.236in">
<path fill-rule="evenodd"  fill="rgb(137, 137, 137)"
 d="M10.572,11.867 C10.428,12.011 10.304,12.170 10.196,12.338 L5.437,9.448 C5.563,9.134 5.635,8.791 5.635,8.431 C5.635,8.072 5.563,7.729 5.438,7.414 L10.198,4.547 C10.686,5.315 11.543,5.827 12.519,5.827 C14.038,5.827 15.273,4.592 15.273,3.073 C15.273,1.554 14.038,0.319 12.519,0.319 C11.001,0.319 9.765,1.554 9.765,3.073 C9.765,3.419 9.832,3.749 9.949,4.054 L5.183,6.924 C4.690,6.174 3.843,5.677 2.880,5.677 C1.362,5.677 0.126,6.913 0.126,8.431 C0.126,9.950 1.362,11.186 2.880,11.186 C3.843,11.186 4.690,10.688 5.183,9.939 L9.948,12.831 C9.830,13.141 9.765,13.472 9.765,13.814 C9.765,14.550 10.052,15.242 10.572,15.762 C11.109,16.299 11.814,16.567 12.519,16.567 C13.224,16.567 13.930,16.299 14.466,15.762 C14.987,15.242 15.273,14.550 15.273,13.814 C15.273,13.078 14.987,12.387 14.466,11.867 C13.393,10.792 11.646,10.792 10.572,11.867 ZM12.519,0.870 C13.734,0.870 14.723,1.858 14.723,3.073 C14.723,4.287 13.734,5.276 12.519,5.276 C11.305,5.276 10.316,4.287 10.316,3.073 C10.316,1.858 11.304,0.870 12.519,0.870 ZM2.881,10.635 C1.666,10.635 0.677,9.646 0.677,8.431 C0.677,7.216 1.666,6.228 2.881,6.228 C4.095,6.228 5.084,7.216 5.084,8.431 C5.084,9.646 4.095,10.635 2.881,10.635 ZM14.077,15.373 C13.218,16.231 11.820,16.231 10.961,15.373 C10.545,14.956 10.316,14.403 10.316,13.814 C10.316,13.226 10.545,12.672 10.961,12.256 C11.391,11.827 11.955,11.612 12.519,11.612 C13.084,11.612 13.648,11.827 14.077,12.256 C14.493,12.672 14.723,13.226 14.723,13.814 C14.723,14.403 14.493,14.956 14.077,15.373 Z"/>
</svg>